<?xml version="1.0" standalone="no"?>
<!DOCTYPE svg PUBLIC "-//W3C//DTD SVG 20010904//EN"
 "http://www.w3.org/TR/2001/REC-SVG-20010904/DTD/svg10.dtd">
<svg version="1.0" xmlns="http://www.w3.org/2000/svg"
 width="52pt" height="52pt" viewBox="0 0 284.000000 223.000000"
 preserveAspectRatio="xMidYMid meet">
<metadata>
Created by potrace 1.16, written by Peter Selinger 2001-2019
</metadata>
<g transform="translate(0.000000,223.000000) scale(0.100000,-0.100000)"
fill="#000000" stroke="none">
<path d="M1310 2069 c-79 -16 -122 -29 -235 -71 -108 -40 -162 -70 -237 -132
-84 -69 -106 -86 -115 -86 -39 0 -164 -160 -161 -204 3 -30 10 -32 32 -11 36
36 35 5 -3 -79 -32 -68 -54 -141 -77 -246 -16 -77 -20 -375 -4 -365 6 3 10 15
10 26 0 10 5 19 10 19 6 0 10 -7 10 -16 0 -33 62 -201 106 -289 45 -90 55
-103 159 -222 30 -34 55 -66 55 -72 0 -12 71 -73 102 -88 29 -14 113 -51 158
-71 19 -8 73 -25 120 -38 103 -29 274 -33 367 -9 64 17 259 110 338 162 28 18
84 44 125 59 71 25 130 65 130 88 0 6 -6 4 -13 -4 -25 -30 -97 -55 -97 -34 0
13 123 143 131 138 5 -2 11 8 14 23 4 15 19 55 35 88 31 66 58 141 71 195 30
128 36 175 27 212 -7 33 -5 44 12 68 11 15 20 35 20 44 0 9 2 16 5 16 10 0 75
-69 75 -80 0 -5 4 -10 9 -10 18 0 33 94 22 140 -6 25 -11 58 -11 75 0 31 -32
148 -56 203 -8 18 -14 44 -14 58 0 14 -4 23 -9 20 -5 -3 -8 2 -7 12 1 11 -5
16 -16 14 -10 -2 -18 2 -18 8 0 5 5 10 11 10 5 0 7 5 3 11 -4 8 -9 7 -15 -2
-7 -11 -11 -10 -24 6 -8 11 -13 27 -11 35 3 17 -18 43 -28 33 -3 -3 -25 16
-48 43 -74 83 -100 104 -124 98 -12 -3 -25 -1 -28 5 -4 6 -12 11 -18 11 -5 0
15 -28 46 -61 32 -34 55 -63 53 -65 -2 -2 -59 33 -128 79 -68 45 -157 98 -196
117 -72 35 -93 60 -50 60 12 0 58 -18 102 -40 44 -22 84 -40 89 -40 14 0 -34
39 -55 45 -36 12 -20 28 22 22 36 -5 39 -4 23 8 -11 7 -41 22 -69 35 -27 12
-69 30 -93 41 -50 22 -65 23 -92 7 -15 -9 -46 -9 -142 0 -139 14 -232 14 -298
1z m411 -204 c46 -13 109 -42 119 -54 3 -4 34 -27 70 -53 114 -80 267 -243
310 -327 17 -34 20 -54 16 -90 -23 -166 -17 -198 35 -187 25 5 30 2 35 -21 10
-39 -3 -230 -19 -293 -44 -167 -91 -243 -240 -393 -100 -101 -136 -130 -204
-165 -44 -23 -94 -42 -110 -42 -15 0 -44 -5 -63 -11 -19 -6 -101 -10 -181 -10
-141 1 -158 3 -296 42 -18 5 -48 13 -65 18 -170 46 -305 153 -372 294 -20 42
-36 78 -36 80 0 3 -7 22 -16 42 -12 30 -18 35 -25 24 -7 -9 -8 -2 -3 24 6 36
-7 53 -20 25 -3 -7 -5 -2 -5 12 2 42 -1 51 -10 45 -16 -9 -22 12 -10 39 9 19
8 33 -3 63 -23 57 -17 227 11 328 37 133 145 324 226 398 34 30 184 128 223
144 42 18 278 71 367 83 75 10 205 2 266 -15z"/>
<path d="M1319 1282 c-50 -55 -64 -72 -99 -122 -13 -19 -30 -41 -37 -48 -7 -8
-18 -22 -23 -33 -8 -15 -22 -19 -59 -19 -28 0 -53 -6 -60 -13 -15 -19 -4 -27
36 -27 39 0 41 -12 13 -55 -33 -48 -70 -133 -70 -160 0 -50 27 -22 74 78 60
125 71 138 105 131 64 -14 61 -9 61 -98 0 -70 3 -86 20 -101 17 -15 24 -16 50
-5 17 7 40 27 52 44 l22 31 -25 -22 c-32 -29 -55 -29 -70 -1 -16 29 3 141 51
313 18 63 24 80 36 104 10 18 10 29 2 38 -18 22 -33 15 -79 -35z"/>
<path d="M1633 1308 c4 -13 -8 -66 -27 -121 -25 -74 -39 -102 -56 -110 -29
-15 -38 -37 -15 -37 19 0 16 -25 -15 -122 -20 -62 -36 -148 -27 -148 16 0 37
36 52 87 10 32 27 87 39 123 l23 65 61 9 c33 5 68 6 77 2 19 -7 18 -23 -9
-121 -22 -76 -18 -158 7 -163 13 -3 17 3 17 25 0 26 20 144 38 223 6 25 14 36
30 38 25 4 31 22 7 22 -17 0 -19 23 -6 66 5 16 14 49 21 74 7 25 17 55 23 67
13 29 -1 44 -16 18 -7 -10 -28 -64 -47 -120 l-35 -100 -70 3 c-39 2 -74 7 -78
11 -4 5 -4 19 2 32 5 13 19 57 31 97 17 58 19 76 10 87 -20 24 -43 19 -37 -7z"/>
</g>
</svg>
